<svg width="80" height="79" viewBox="0 0 80 79" fill="none" xmlns="http://www.w3.org/2000/svg">
<g id="&#240;&#159;&#166;&#134; icon _social linkedin_">
<path id="Vector" d="M62.2816 0H5.70142C2.99562 0 0.799805 2.13875 0.799805 4.77241V61.4535C0.799805 64.0908 2.99562 66.2323 5.70142 66.2323H62.2816C64.9893 66.2323 67.1998 64.0908 67.1998 61.4535V4.77241C67.1998 2.13875 64.9893 0 62.2816 0ZM20.4929 56.4391H10.6399V24.8325H20.4929V56.4391ZM15.5664 20.5109C12.4097 20.5109 9.85788 17.9591 9.85788 14.813C9.85788 11.6716 12.4097 9.11979 15.5664 9.11979C18.7158 9.11979 21.2741 11.6716 21.2741 14.813C21.2741 17.9591 18.7158 20.5109 15.5664 20.5109ZM57.3782 56.4391H47.5408V41.0695C47.5408 37.4029 47.4689 32.6884 42.4215 32.6884C37.2958 32.6884 36.5147 36.6817 36.5147 40.8037V56.44H26.67V24.8325H36.1182V29.1486H36.2528C37.5679 26.6649 40.7809 24.0442 45.5728 24.0442C55.5384 24.0442 57.3791 30.5883 57.3791 39.1019L57.3782 56.4391Z" fill="white"/>
</g>
</svg>
