<svg width="74" height="74" viewBox="0 0 74 74" fill="none" xmlns="http://www.w3.org/2000/svg">
<g id="Frame 33142">
<path id="Vector" d="M62.7679 10.9018C69.7054 17.8393 74 26.9241 74 36.8349C74 56.9866 57.1518 73.5046 36.8349 73.5046C30.7232 73.5046 24.7768 71.8528 19.3259 69.0446L0 74L5.12054 55.0046C1.98214 49.5536 0.165178 43.2769 0.165178 36.6697C0.165178 16.5179 16.683 0 36.8349 0C46.7455 0 55.9955 3.96429 62.7679 10.9018ZM36.8349 67.2277C53.6831 67.2277 67.7231 53.5179 67.7231 36.8349C67.7231 28.5759 64.2544 20.9777 58.4731 15.1964C52.6919 9.41519 45.0937 6.27678 37 6.27678C20.1518 6.27678 6.44196 19.9866 6.44196 36.6697C6.44196 42.451 8.09375 48.0669 11.067 53.0223L11.8929 54.1787L8.75446 65.4107L20.317 62.2723L21.308 62.9331C26.0983 65.741 31.3839 67.2277 36.8349 67.2277ZM53.6831 44.4331C54.509 44.9287 55.1696 45.0938 55.3349 45.5893C55.6652 45.9197 55.6652 47.7366 54.8393 49.884C54.0134 52.0313 50.3795 54.0134 48.7277 54.1787C45.7544 54.6741 43.4419 54.509 37.6608 51.8661C28.4106 47.9018 22.4642 38.6518 21.9688 38.1563C21.4732 37.4956 18.3348 33.201 18.3348 28.5759C18.3348 24.1161 20.6473 21.9687 21.4732 20.9777C22.2991 19.9866 23.2901 19.8215 23.9509 19.8215C24.4465 19.8215 25.1072 19.8215 25.6027 19.8215C26.2634 19.8215 26.9241 19.6562 27.75 21.4733C28.4106 23.2902 30.3929 27.75 30.558 28.2456C30.7232 28.7411 30.8883 29.2366 30.558 29.8974C28.9062 33.3661 26.9241 33.201 27.9152 34.8528C31.5491 40.9643 35.0178 43.1116 40.4688 45.7546C41.2947 46.25 41.7901 46.0849 42.4509 45.5893C42.9464 44.9287 44.7634 42.7813 45.259 41.9554C45.9196 40.9643 46.5803 41.1295 47.4062 41.4598C48.2321 41.7902 52.6919 43.9375 53.6831 44.4331Z" fill="white"/>
</g>
</svg>
